<svg width="17" height="18" viewBox="0 0 17 18" fill="none" xmlns="http://www.w3.org/2000/svg">
<path fill-rule="evenodd" clip-rule="evenodd" d="M10.766 6.32508L7.19102 9.90841L5.81602 8.53341C5.61236 8.29558 5.29258 8.192 4.98817 8.26525C4.68375 8.3385 4.44607 8.57616 4.37284 8.88058C4.29962 9.185 4.4032 9.50475 4.64102 9.70841L6.59935 11.6751C6.75662 11.8311 6.96952 11.918 7.19102 11.9167C7.4096 11.9158 7.6191 11.829 7.77435 11.6751L11.941 7.50841C12.0988 7.35191 12.1875 7.13895 12.1875 6.91675C12.1875 6.69455 12.0988 6.48156 11.941 6.32508C11.616 6.00198 11.091 6.00198 10.766 6.32508ZM8.49935 0.666748C3.89697 0.666748 0.166016 4.39771 0.166016 9.00008C0.166016 13.6024 3.89697 17.3334 8.49935 17.3334C13.1017 17.3334 16.8327 13.6024 16.8327 9.00008C16.8327 6.78995 15.9547 4.67033 14.3919 3.10752C12.8291 1.54472 10.7095 0.666748 8.49935 0.666748ZM8.49935 15.6667C4.81745 15.6667 1.83268 12.682 1.83268 9.00008C1.83268 5.31818 4.81745 2.33341 8.49935 2.33341C12.1813 2.33341 15.166 5.31818 15.166 9.00008C15.166 10.7682 14.4636 12.4639 13.2134 13.7142C11.9632 14.9643 10.2674 15.6667 8.49935 15.6667Z" fill="#3CC13B"/>
<path fill-rule="evenodd" clip-rule="evenodd" d="M10.766 6.32508L7.19102 9.90841L5.81602 8.53341C5.61236 8.29558 5.29258 8.192 4.98817 8.26525C4.68375 8.3385 4.44607 8.57616 4.37284 8.88058C4.29962 9.185 4.4032 9.50475 4.64102 9.70841L6.59935 11.6751C6.75662 11.8311 6.96952 11.918 7.19102 11.9167C7.4096 11.9158 7.6191 11.829 7.77435 11.6751L11.941 7.50841C12.0988 7.35191 12.1875 7.13895 12.1875 6.91675C12.1875 6.69455 12.0988 6.48156 11.941 6.32508C11.616 6.00198 11.091 6.00198 10.766 6.32508ZM8.49935 0.666748C3.89697 0.666748 0.166016 4.39771 0.166016 9.00008C0.166016 13.6024 3.89697 17.3334 8.49935 17.3334C13.1017 17.3334 16.8327 13.6024 16.8327 9.00008C16.8327 6.78995 15.9547 4.67033 14.3919 3.10752C12.8291 1.54472 10.7095 0.666748 8.49935 0.666748ZM8.49935 15.6667C4.81745 15.6667 1.83268 12.682 1.83268 9.00008C1.83268 5.31818 4.81745 2.33341 8.49935 2.33341C12.1813 2.33341 15.166 5.31818 15.166 9.00008C15.166 10.7682 14.4636 12.4639 13.2134 13.7142C11.9632 14.9643 10.2674 15.6667 8.49935 15.6667Z" fill="black" fill-opacity="0.25"/>
</svg>
