<svg width="4" height="16" viewBox="0 0 4 16" fill="none" xmlns="http://www.w3.org/2000/svg">
<path fill-rule="evenodd" clip-rule="evenodd" d="M2.00065 3.83333C2.92115 3.83333 3.66732 3.08714 3.66732 2.16667C3.66732 1.24619 2.92115 0.5 2.00065 0.5C1.08015 0.5 0.333984 1.24619 0.333984 2.16667C0.333984 3.08714 1.08015 3.83333 2.00065 3.83333ZM2.00065 12.1667C1.08015 12.1667 0.333984 12.9128 0.333984 13.8333C0.333984 14.7538 1.08015 15.5 2.00065 15.5C2.92115 15.5 3.66732 14.7538 3.66732 13.8333C3.66732 12.9128 2.92115 12.1667 2.00065 12.1667ZM2.00065 6.33333C1.08015 6.33333 0.333984 7.0795 0.333984 8C0.333984 8.9205 1.08015 9.66667 2.00065 9.66667C2.92115 9.66667 3.66732 8.9205 3.66732 8C3.66732 7.0795 2.92115 6.33333 2.00065 6.33333Z" fill="#60646A"/>
</svg>
