<svg width="18" height="14" viewBox="0 0 18 14" fill="none" xmlns="http://www.w3.org/2000/svg">
<path d="M16.8077 6.86437L16.8087 6.86668C16.8458 6.95168 16.8458 7.04815 16.8087 7.13315L16.8077 7.13547C15.1795 10.9157 12.1632 13.1666 9.00026 13.1666C5.83733 13.1666 2.82102 10.9157 1.19285 7.13547L1.19285 7.13546L1.19191 7.13329C1.15478 7.04821 1.15478 6.95163 1.19191 6.86655L1.19191 6.86655L1.19285 6.86437C2.82102 3.08412 5.83733 0.833252 9.00026 0.833252C12.1632 0.833252 15.1795 3.08412 16.8077 6.86437ZM1.96381 6.78861L1.86528 6.99992L1.96381 7.21123C3.4581 10.4157 6.10307 12.4999 9.00026 12.4999C11.8975 12.4999 14.5425 10.4158 16.0368 7.21123L16.1353 6.99992L16.0368 6.78861C14.5425 3.58409 11.8975 1.49992 9.00026 1.49992C6.10307 1.49992 3.4581 3.58409 1.96381 6.78861ZM6.16696 6.99992C6.16696 5.43511 7.4355 4.16659 9.00026 4.16659C9.75172 4.16659 10.4724 4.46509 11.0038 4.99644C11.5351 5.52779 11.8336 6.24844 11.8336 6.99992C11.8336 8.5647 10.5651 9.83325 9.00026 9.83325C7.4355 9.83325 6.16696 8.5647 6.16696 6.99992ZM6.83363 6.99992C6.83363 8.19656 7.80371 9.16658 9.00026 9.16658C10.1969 9.16658 11.1669 8.19656 11.1669 6.99992C11.1669 5.80328 10.1969 4.83325 9.00026 4.83325C7.80371 4.83325 6.83363 5.80327 6.83363 6.99992Z" fill="#60646A" stroke="black"/>
</svg>
