<svg width="17" height="18" viewBox="0 0 17 18" fill="none" xmlns="http://www.w3.org/2000/svg">
<path fill-rule="evenodd" clip-rule="evenodd" d="M11.5921 5.90848C11.4356 5.75072 11.2226 5.66198 11.0004 5.66198C10.7782 5.66198 10.5652 5.75072 10.4088 5.90848L8.50042 7.82516L6.59206 5.90848C6.26529 5.58171 5.73549 5.58171 5.40873 5.90848C5.08196 6.23526 5.08196 6.76505 5.40873 7.09181L7.32543 9.00016L5.40873 10.9085C5.25097 11.0649 5.16223 11.2779 5.16223 11.5002C5.16223 11.7223 5.25097 11.9353 5.40873 12.0918C5.5652 12.2496 5.77819 12.3383 6.00039 12.3383C6.22259 12.3383 6.43558 12.2496 6.59206 12.0918L8.50042 10.1752L10.4088 12.0918C10.5652 12.2496 10.7782 12.3383 11.0004 12.3383C11.2226 12.3383 11.4356 12.2496 11.5921 12.0918C11.7498 11.9353 11.8386 11.7223 11.8386 11.5002C11.8386 11.2779 11.7498 11.0649 11.5921 10.9085L9.67542 9.00016L11.5921 7.09181C11.7498 6.93535 11.8386 6.72235 11.8386 6.50015C11.8386 6.27796 11.7498 6.06496 11.5921 5.90848ZM14.3921 3.10848C12.2998 0.942181 9.20142 0.0733806 6.28783 0.836006C3.37425 1.59864 1.09887 3.87401 0.33625 6.78759C-0.426375 9.70116 0.442425 12.7995 2.60872 14.8918C4.70102 17.0581 7.79934 17.9269 10.7129 17.1643C13.6265 16.4017 15.9019 14.1263 16.6645 11.2127C17.4272 8.29916 16.5583 5.20077 14.3921 3.10848ZM13.2171 13.7168C10.9694 15.9669 7.44542 16.3161 4.79999 14.5508C2.15454 12.7855 1.12439 9.39742 2.33948 6.45831C3.55458 3.51922 6.67654 1.8477 9.79626 2.46588C12.9159 3.08406 15.1646 5.8198 15.1671 9.00016C15.1731 10.7697 14.4709 12.4681 13.2171 13.7168Z" fill="#F03738"/>
</svg>
